PathFileType	4	(X/Y/Z)	D:\Share\Shared_Data\Ergonomics\Sit To Stand Pertubation\S0\Perturbed STS.trc
DataRate	CameraRate	NumFrames	NumMarkers	Units	OrigDataRate	OrigDataStartFrame	OrigNumFrames	
100	100	6	18	m	100	7822	211
Frame#	Time	R_Heel			R_ASIS			R_Pelvis			V_Sacral			L_Pelvis			L_ASIS			Clavical			R_Acromium			L_Acromium			Sternum			Torso			R_Thigh_Med			R_Thigh_Lat			R_Thigh			R_Shank_Med			R_Shank_Lat			R_Shank			R_Toe			
		X1	Y1	Z1	X2	Y2	Z2	X3	Y3	Z3	X4	Y4	Z4	X5	Y5	Z5	X6	Y6	Z6	X7	Y7	Z7	X8	Y8	Z8	X9	Y9	Z9	X10	Y10	Z10	X11	Y11	Z11	X12	Y12	Z12	X13	Y13	Z13	X14	Y14	Z14	X15	Y15	Z15	X16	Y16	Z16	X17	Y17	Z17	X18	Y18	Z18	

7822	34.56	0.18433762	0.042505234	0.13255013	-0.039132896	0.74089868	0.13793433	-0.16985184	0.73851471	0.17683418	-0.28834573	0.71922882	-0.054907703	-0.1384671	0.73104395	-0.23031364	-0.014858796	0.7306087	-0.18134561	0.13571539	1.0483683	-0.027703194	0.088483711	1.1432661	0.10921407	0.086075859	1.1425325	-0.17966057	0.12415096	0.9515387	-0.041459808	0.12359549	1.0010377	-0.14721985	0.27939594	0.49778796	0.058857502	0.25685147	0.51538953	0.19149677	0.18568857	0.64929102	0.10892688	0.27957581	0.10665819	0.091142319	0.22217569	0.085922539	0.17877133	0.24748691	0.31386194	0.2017495	0.40651074	0.049780243	0.12411733
7823	34.57	0.18434016	0.042344131	0.13251881	-0.037802757	0.74070825	0.13801471	-0.16775642	0.73974518	0.1768643	-0.28647824	0.72132861	-0.054920376	-0.13632814	0.73185846	-0.23028362	-0.012661283	0.73010449	-0.1812683	0.14269771	1.0451708	-0.027860161	0.096902039	1.1410149	0.10877739	0.094223923	1.1399976	-0.17975108	0.12978806	0.94853265	-0.041602383	0.12995239	0.99808154	-0.14740793	0.27963116	0.49748453	0.058827633	0.25733755	0.51524481	0.19147385	0.18645799	0.64921814	0.10887502	0.27962067	0.10652124	0.091094429	0.22217979	0.085797638	0.17872414	0.24765489	0.3137308	0.20166652	0.40658023	0.049931023	0.12422766
7824	34.58	0.18435417	0.042205925	0.13247932	-0.036186485	0.74059235	0.13811589	-0.16554478	0.74102069	0.17689923	-0.28450174	0.72350439	-0.054929001	-0.13410211	0.7327002	-0.23026743	-0.010414174	0.72957819	-0.18120161	0.14977634	1.0418997	-0.027995726	0.10545711	1.1386952	0.10831239	0.10250715	1.1373856	-0.17984782	0.13555711	0.94546997	-0.041757969	0.13643768	0.99507367	-0.14760405	0.27994379	0.49722406	0.058776688	0.25786407	0.51512384	0.19143651	0.18727477	0.64920148	0.10881492	0.27969272	0.106394	0.091039474	0.22220058	0.085692978	0.17866962	0.24786275	0.31361002	0.20156908	0.4066503	0.050097912	0.12434257
7825	34.59	0.18438026	0.042086185	0.13243074	-0.034305496	0.74055597	0.13823235	-0.16321559	0.74234387	0.17693738	-0.28241434	0.72575806	-0.054933628	-0.13179076	0.73357184	-0.23026837	-0.0081210012	0.72901721	-0.18115179	0.15695712	1.0385547	-0.028106411	0.11414837	1.1363062	0.10782441	0.11093099	1.1347001	-0.17994904	0.14146645	0.94235303	-0.041929623	0.14305418	0.99201581	-0.14780125	0.28033301	0.49700424	0.058700562	0.25842816	0.51501788	0.19137955	0.18813884	0.64923938	0.1087503	0.27979086	0.10627234	0.09097448	0.22223926	0.085604439	0.17860631	0.24811565	0.31349509	0.20145636	0.40671872	0.050285358	0.12446058
7826	34.6	0.18441838	0.0419799	0.13237343	-0.032193855	0.74059949	0.13835507	-0.1607675	0.74371918	0.17697595	-0.28021411	0.72809332	-0.054935345	-0.12939357	0.73447412	-0.23028668	-0.0057767444	0.72841327	-0.18112639	0.16425314	1.0351349	-0.028192179	0.12297437	1.1338488	0.10731804	0.1195018	1.1319423	-0.18005203	0.14752177	0.93918488	-0.042119003	0.14980299	0.98890967	-0.14799281	0.28079382	0.49681842	0.058595669	0.25902451	0.51491809	0.19129837	0.18905533	0.64932678	0.10868059	0.27991235	0.10615261	0.09089769	0.22229602	0.085527847	0.17853372	0.24841885	0.31338437	0.20132719	0.4067825	0.050498993	0.12457961
7827	34.61	0.18446826	0.041882256	0.13230858	-0.029888567	0.7407215	0.13847542	-0.15819937	0.74515253	0.17701103	-0.27789841	0.73051575	-0.054936512	-0.12690841	0.73540771	-0.23032188	-0.0033759339	0.72776544	-0.1811315	0.17168163	1.0316418	-0.028255665	0.13193353	1.1313251	0.10679709	0.12822423	1.1291108	-0.18015196	0.15372206	0.9359696	-0.042325287	0.1566832	0.98575708	-0.14817329	0.2813176	0.49665689	0.058459084	0.25964886	0.51481897	0.19118958	0.19003026	0.64945447	0.10859947	0.28005402	0.1060321	0.090808464	0.22237048	0.085459496	0.17845178	0.24877711	0.31327884	0.2011796	0.40683954	0.050742867	0.12469736
